<?xml version="1.0" encoding="utf-8"?>
<!-- Generator: Adobe Illustrator 21.0.0, SVG Export Plug-In . SVG Version: 6.00 Build 0)  -->
<svg version="1.1" id="Layer_1" xmlns="http://www.w3.org/2000/svg" xmlns:xlink="http://www.w3.org/1999/xlink" x="0px" y="0px"
	 width="1400px" height="980px" viewBox="0 0 1400 980" style="enable-background:new 0 0 1400 980;" xml:space="preserve">
<style type="text/css">
	.st0{fill-rule:evenodd;clip-rule:evenodd;fill:#3389C2;}
	.st1{fill-rule:evenodd;clip-rule:evenodd;fill:#7FB6DA;}
	.st2{fill-rule:evenodd;clip-rule:evenodd;fill:#C46F3B;}
	.st3{fill-rule:evenodd;clip-rule:evenodd;fill:#B9632D;}
	.st4{fill-rule:evenodd;clip-rule:evenodd;fill:#414C58;}
	.st5{fill-rule:evenodd;clip-rule:evenodd;fill:#505B64;}
	.st6{fill-rule:evenodd;clip-rule:evenodd;fill:#A66336;}
	.st7{fill-rule:evenodd;clip-rule:evenodd;fill:#CACACB;}
	.st8{fill-rule:evenodd;clip-rule:evenodd;fill:#E3E4E4;}
	.st9{fill-rule:evenodd;clip-rule:evenodd;fill:#313B4A;}
	.st10{fill-rule:evenodd;clip-rule:evenodd;fill:#E95A5C;}
	.st11{fill-rule:evenodd;clip-rule:evenodd;fill:#F7C49E;}
	.st12{fill-rule:evenodd;clip-rule:evenodd;fill:#969697;}
	.st13{fill-rule:evenodd;clip-rule:evenodd;fill:#203241;}
	.st14{fill-rule:evenodd;clip-rule:evenodd;fill:#D73C3D;}
	.st15{fill-rule:evenodd;clip-rule:evenodd;fill:#2475A3;}
	.st16{fill-rule:evenodd;clip-rule:evenodd;fill:#F9D4B8;}
	.st17{fill-rule:evenodd;clip-rule:evenodd;fill:#F8CCAC;}
	.st18{fill-rule:evenodd;clip-rule:evenodd;fill:#612424;}
	.st19{fill-rule:evenodd;clip-rule:evenodd;fill:#741833;}
	.st20{fill-rule:evenodd;clip-rule:evenodd;fill:#8B2A4A;}
	.st21{fill-rule:evenodd;clip-rule:evenodd;fill:#AFAEAE;}
	.st22{fill-rule:evenodd;clip-rule:evenodd;fill:#E7E5E4;}
	.st23{fill-rule:evenodd;clip-rule:evenodd;fill:#D6865A;}
	.st24{fill-rule:evenodd;clip-rule:evenodd;fill:#CC7849;}
	.st25{fill-rule:evenodd;clip-rule:evenodd;fill:#D28357;}
	.st26{fill-rule:evenodd;clip-rule:evenodd;fill:#DF926A;}
	.st27{fill-rule:evenodd;clip-rule:evenodd;fill:#864923;}
	.st28{fill-rule:evenodd;clip-rule:evenodd;fill:#394550;}
	.st29{fill-rule:evenodd;clip-rule:evenodd;fill:#303A47;}
</style>
<g>
	<rect y="0" class="st0" width="1400" height="980"/>
	<g>
		<polygon class="st1" points="898.4,322.6 115.7,980 1161,980 993.5,417.7 		"/>
		<rect x="772.5" y="682.8" class="st2" width="405.2" height="297.3"/>
		<polygon class="st3" points="1038.2,980 1038.2,708.8 772.5,708.8 		"/>
		<rect x="811.2" y="750" class="st4" width="227" height="230"/>
		<rect x="790.8" y="750" class="st5" width="161.6" height="230"/>
		<rect x="1038.2" y="682.8" class="st6" width="139.6" height="297.3"/>
		<rect x="501.1" y="844.6" class="st7" width="42.6" height="72.6"/>
		<rect x="501.1" y="844.6" class="st8" width="18.1" height="72.6"/>
		<path class="st9" d="M442.8,423C385.1,423,338,470.2,338,527.8v154.7c0,57.7,47.2,104.8,104.8,104.8
			c57.7,0,104.8-47.2,104.8-104.8V527.8C547.6,470.2,500.4,423,442.8,423z"/>
		<path class="st5" d="M460.9,424.6c-5.9-1-12-1.6-18.1-1.6h0C385.1,423,338,470.2,338,527.8v154.7c0,57.7,47.2,104.8,104.8,104.8h0
			c6.2,0,12.2-0.5,18.1-1.6c-49.1-8.7-86.7-51.8-86.7-103.2V527.8C374.2,476.4,411.8,433.3,460.9,424.6z"/>
		<path class="st4" d="M644.7,787.3h-218c-15.8,0-28.6,12.9-28.6,28.6c0,15.8,12.9,28.6,28.6,28.6h218c15.8,0,28.6-12.9,28.6-28.6
			C673.3,800.2,660.5,787.3,644.7,787.3z"/>
		<g>
			<path class="st7" d="M604,908.7H441c-11,0-21,4.5-28.2,11.7c-7.2,7.2-11.7,17.2-11.7,28.2V980h17v-31.4c0-6.3,2.6-12,6.7-16.1
				c4.1-4.2,9.9-6.7,16.1-6.7h163c6.3,0,12,2.6,16.1,6.7c4.1,4.1,6.7,9.9,6.7,16.1V980h17v-31.4c0-11-4.5-21-11.7-28.2
				C624.9,913.2,614.9,908.7,604,908.7z"/>
			<path class="st7" d="M527.9,904.9c-12,0-22.9,4.9-30.8,12.8l0,0c-7.9,7.9-12.8,18.8-12.8,30.8V980h24.6v-31.4
				c0-5.3,2.1-10,5.6-13.5c3.5-3.5,8.2-5.6,13.5-5.6c6.8,0,12.3-5.5,12.3-12.3C540.2,910.4,534.7,904.9,527.9,904.9z"/>
		</g>
		<path class="st10" d="M645.8,502.5c-2.9-20.1-21.5-34.1-41.6-31.2c-20.1,2.9-34.1,21.5-31.2,41.6l17.8,123
			c2.9,20.1,21.5,34.1,41.6,31.2c20.1-2.9,34.1-21.5,31.2-41.6L645.8,502.5z"/>
		<path class="st11" d="M778,593.8H627.1c-20.4,0-36.9,16.5-36.9,36.9c0,20.4,16.5,36.9,36.9,36.9H778c20.4,0,36.9-16.5,36.9-36.9
			C814.8,610.3,798.3,593.8,778,593.8z"/>
		<rect x="495" y="844.6" class="st12" width="55" height="20.7"/>
		<path class="st13" d="M721.1,728.7H602.4c-20.4,0-36.9,16.5-36.9,36.9c0,20.4,16.5,36.9,36.9,36.9h118.7
			c20.4,0,36.9-16.5,36.9-36.9C757.9,745.2,741.4,728.7,721.1,728.7z"/>
		<path class="st13" d="M756.3,754.8c-5.8-19.5-26.3-30.6-45.8-24.8c-19.5,5.8-30.6,26.3-24.8,45.8L746.7,980h75.2
			c0-3.5-0.5-7-1.5-10.5L756.3,754.8z"/>
		<path class="st10" d="M545.9,463.7c-48.5,0-88.1,39.7-88.1,88.1v215.5h176.3V551.8C634.1,503.3,594.4,463.7,545.9,463.7z"/>
		<path class="st14" d="M457.8,551.8v169.8c46.1-9.3,81.7-67.7,81.7-138.5c0-44-13.8-83.2-35.3-108.9
			C476.6,489.1,457.8,518.4,457.8,551.8z"/>
		<path class="st9" d="M609.3,728.7H490.7c-20.4,0-36.9,16.5-36.9,36.9c0,20.4,16.5,36.9,36.9,36.9h118.7
			c20.4,0,36.9-16.5,36.9-36.9C646.2,745.2,629.7,728.7,609.3,728.7z"/>
		<path class="st13" d="M556.1,753.9h-78.1c-11.5,0-21,7.9-23.6,18.6c3.3,17,18.2,29.9,36.2,29.9h65.4c13.4,0,24.2-10.9,24.2-24.3
			C580.4,764.7,569.5,753.9,556.1,753.9z"/>
		<path class="st9" d="M644.6,754.8c-5.8-19.5-26.3-30.6-45.8-24.8c-19.5,5.8-30.6,26.3-24.8,45.8L634.9,980h75.2
			c0-3.5-0.5-7-1.5-10.5L644.6,754.8z"/>
		<path class="st15" d="M754.2,639.1H615.7c-4.8,0-8.8,4-8.8,8.8v0c0,4.8,4,8.8,8.8,8.8h138.5c4.8,0,8.8-4,8.8-8.8v0
			C763,643.1,759.1,639.1,754.2,639.1z"/>
		<path class="st9" d="M541.9,561.6c-1.8-3-5.6-3.9-8.5-2.1c-3,1.8-3.9,5.6-2.1,8.5l54.1,90.2c1.8,3,5.6,3.9,8.5,2.1
			c3-1.8,3.9-5.6,2.1-8.5L541.9,561.6z"/>
		<path class="st10" d="M512,472.7c-17.7-10-40.1-3.8-50.1,13.8l-65.4,115.2c-10,17.7-3.8,40.1,13.8,50.1
			c17.7,10,40.1,3.8,50.1-13.8l65.4-115.2C535.8,505.2,529.6,482.7,512,472.7z"/>
		<path class="st11" d="M557.4,583H428.4c-20.4,0-36.9,16.5-36.9,36.9s16.5,36.9,36.9,36.9h128.9c20.4,0,36.9-16.5,36.9-36.9
			S577.7,583,557.4,583z"/>
		<path class="st16" d="M501.6,604.3h-70.8c-11.2,0-20.2,9.1-20.2,20.2c0,11.2,9.1,20.2,20.2,20.2h70.8c11.2,0,20.2-9.1,20.2-20.2
			C521.8,613.4,512.8,604.3,501.6,604.3z"/>
		<path class="st17" d="M533.4,604.3h-70.8c-11.2,0-20.2,9.1-20.2,20.2c0,11.2,9.1,20.2,20.2,20.2h70.8c11.2,0,20.2-9.1,20.2-20.2
			C553.6,613.4,544.5,604.3,533.4,604.3z"/>
		<path class="st11" d="M592.3,353.9L592.3,353.9c-35.9,0-65.4,29.4-65.4,65.4v24.7c0,35.9,29.4,65.4,65.4,65.4h0
			c35.9,0,65.4-29.4,65.4-65.4v-24.7C657.6,383.3,628.2,353.9,592.3,353.9z"/>
		<circle class="st11" cx="585.7" cy="502" r="30"/>
		<g>
			<path class="st9" d="M656.7,422.1h-20c-3.4,0-6.6,1.4-8.9,3.7c-2.1,2.1-3.4,4.9-3.6,8h-6.7c-0.2-3.1-1.6-5.9-3.7-8
				c-2.3-2.3-5.4-3.7-8.9-3.7h-20c-3.4,0-6.6,1.4-8.9,3.7c-2.3,2.3-3.7,5.4-3.7,8.8v4.7c0,3.5,1.4,6.6,3.7,8.9
				c2.3,2.3,5.4,3.7,8.8,3.7h20c3.4,0,6.6-1.4,8.9-3.7c2.3-2.3,3.7-5.4,3.7-8.9v-0.8h6.7v0.8c0,3.5,1.4,6.6,3.7,8.9
				c2.3,2.3,5.4,3.7,8.9,3.7h20c3.5,0,6.6-1.4,8.9-3.7c2.3-2.3,3.7-5.4,3.7-8.9v-4.7c0-3.4-1.4-6.6-3.7-8.9
				C663.3,423.5,660.2,422.1,656.7,422.1z M612.6,436.2v3.2c0,2.1-0.9,4.1-2.3,5.5c-1.4,1.4-3.3,2.3-5.5,2.3h-20
				c-2.1,0-4.1-0.9-5.5-2.3c-1.4-1.4-2.3-3.3-2.3-5.5v-4.7c0-2.1,0.9-4.1,2.3-5.5c1.4-1.4,3.3-2.3,5.5-2.3h20c2.1,0,4.1,0.9,5.5,2.3
				c1.4,1.4,2.3,3.3,2.3,5.5V436.2z M664.4,439.3c0,2.1-0.9,4.1-2.3,5.5c-1.4,1.4-3.3,2.3-5.5,2.3h-20c-2.1,0-4.1-0.9-5.5-2.3
				c-1.4-1.4-2.3-3.3-2.3-5.5v-3.2v-1.6c0-2.1,0.9-4.1,2.3-5.5c1.4-1.4,3.3-2.3,5.5-2.3h20c2.1,0,4.1,0.9,5.5,2.3
				c1.4,1.4,2.3,3.3,2.3,5.5V439.3z"/>
			<path class="st9" d="M571.4,431.4h-41.7c-2.7,0-4.8,2.1-4.8,4.8c0,2.7,2.2,4.8,4.8,4.8h41.7c2.7,0,4.8-2.2,4.8-4.8
				C576.2,433.5,574,431.4,571.4,431.4z"/>
		</g>
		<path class="st18" d="M537.4,375.7c-2.2-0.8-4.4-1.3-6.6-1.5c6.4,8.6,8.5,20.6,4.5,32.1c-5.4,15.3-19.9,24.5-34.4,22.9
			c3.5,4.6,8.2,8.3,14,10.3c16.4,5.8,34.8-3.8,41-21.4C562.1,400.4,553.8,381.5,537.4,375.7z"/>
		<g>
			<path class="st19" d="M539.7,403.5h-73.6c-4.3,0-7.8,3.5-7.8,7.8c0,4.3,3.5,7.8,7.8,7.8h73.6c4.3,0,7.8-3.5,7.8-7.8
				C547.6,407.1,544,403.5,539.7,403.5z"/>
			<g>
				<path class="st20" d="M614.5,333H570c-23.7,0-43.1,19.4-43.1,43.1v43.1h130.7v-43.1C657.6,352.4,638.2,333,614.5,333z"/>
				<path class="st19" d="M634.7,377.6h-9.2c-7.8,0-14.3,6.4-14.3,14.3c0,7.8,6.4,14.3,14.3,14.3h9.2c7.8,0,14.3-6.4,14.3-14.3
					C648.9,384,642.5,377.6,634.7,377.6z"/>
			</g>
		</g>
		<path class="st18" d="M532.5,419.2c-0.3,1.2-0.7,2.4-1.1,3.6c-7.1,20-26.1,32.1-45,29.9c4.5,6.1,10.8,10.8,18.3,13.5
			c21.5,7.6,45.4-4.9,53.6-28c2.2-6.4,3-12.9,2.6-19.1H532.5z"/>
		<rect x="495" y="844.6" class="st21" width="27.5" height="20.7"/>
		<path class="st22" d="M496,941.8c-3.3,0-6.1,2.7-6.1,6v19.9c0,3.3,2.7,6,6.1,6c3.3,0,6-2.7,6-6v-19.9
			C502,944.5,499.3,941.8,496,941.8z"/>
		<path class="st22" d="M636.9,405.4h-32.4v13.8h32.4c3.8,0,6.9-3.1,6.9-6.9v0C643.8,408.5,640.7,405.4,636.9,405.4z"/>
		<path class="st15" d="M1008.6,283.1c-15.7,0-28.4,12.7-28.4,28.4c0,15.7,12.7,28.5,28.4,28.5c15.7,0,28.5-12.7,28.5-28.5
			C1037,295.9,1024.3,283.1,1008.6,283.1z"/>
		<path class="st15" d="M1077.2,466.4c-4.7-2-10.1,0.2-12,4.9l-74,174.4c-2,4.7,0.2,10.1,4.9,12c4.7,2,10.1-0.2,12-4.9l74-174.4
			C1084.1,473.7,1081.9,468.4,1077.2,466.4z"/>
		<path class="st15" d="M1036.2,641.9h-73.2c-3.5,0-6.3,2.8-6.3,6.3v2.2c0,3.5,2.8,6.3,6.3,6.3h73.2c3.5,0,6.3-2.8,6.3-6.3v-2.2
			C1042.5,644.7,1039.7,641.9,1036.2,641.9z"/>
		<path class="st15" d="M973.4,334.8c-3.2-4-8.9-4.6-12.9-1.4c-4,3.2-4.6,8.9-1.4,12.9l107.4,134.3c3.2,4,8.9,4.6,12.9,1.4
			c4-3.2,4.6-8.9,1.4-12.9L973.4,334.8z"/>
		<path class="st15" d="M909.2,308.5c-4.3,4.3-7.9,9-10.9,14.1l95.2,95.2c5-2.9,9.8-6.6,14.1-10.9c27.2-27.2,27.2-71.2,0-98.4
			C980.4,281.4,936.4,281.4,909.2,308.5z"/>
		<circle class="st15" cx="1073.6" cy="474.8" r="17.9"/>
		<rect x="343.4" y="682.8" class="st23" width="38.8" height="297.3"/>
		<rect x="618.2" y="682.8" class="st23" width="38.8" height="297.3"/>
		<path class="st23" d="M1151.7,656.7H316.3c-14.3,0-26,11.7-26,26c0,14.3,11.7,26,26,26h835.4c14.3,0,26-11.7,26-26
			C1177.7,668.4,1166,656.7,1151.7,656.7z"/>
		<path class="st6" d="M1151.7,656.7H736.9c-14.3,0-26,11.7-26,26c0,14.3,11.7,26,26,26h414.8c14.3,0,26-11.7,26-26
			C1177.7,668.4,1166,656.7,1151.7,656.7z"/>
		<rect x="641.7" y="391" class="st5" width="270.6" height="179.4"/>
		<rect x="662.5" y="391" class="st4" width="270.6" height="179.4"/>
		<path class="st5" d="M842.3,479.8h-71.7c-7.8,0-14.2,6.4-14.2,14.2v30.6c0,7.8,6.4,14.2,14.2,14.2h71.7c7.8,0,14.2-6.4,14.2-14.2
			v-30.6C856.5,486.2,850.1,479.8,842.3,479.8z"/>
		<polygon class="st5" points="779.4,522.1 801.1,644.2 855.9,644.2 834.3,522.1 		"/>
		<polygon class="st4" points="793.8,522.1 815.5,644.2 870.3,644.2 848.7,522.1 		"/>
		<rect x="786.7" y="640.2" class="st4" width="123.6" height="16.5"/>
		<path class="st4" d="M855.9,479.8h-71.6c-7.8,0-14.2,6.4-14.2,14.2v30.6c0,7.8,6.4,14.2,14.2,14.2h71.6c7.8,0,14.2-6.4,14.2-14.2
			v-30.6C870.1,486.2,863.7,479.8,855.9,479.8z"/>
		<rect x="724.7" y="640.2" class="st5" width="70.3" height="16.5"/>
		<path class="st9" d="M733.7,529.3h-44.1c-3.2,0-5.8,2.6-5.8,5.8v14.1c0,3.2,2.6,5.8,5.8,5.8h44.1c3.2,0,5.8-2.6,5.8-5.8v-14.1
			C739.4,531.9,736.8,529.3,733.7,529.3z"/>
		<g>
			<path class="st24" d="M538.8,665.8H321.7c-7,0-12.7,5.7-12.7,12.7c0,7,5.7,12.7,12.7,12.7h217.1c7,0,12.7-5.7,12.7-12.7
				C551.5,671.5,545.8,665.8,538.8,665.8z"/>
			<path class="st25" d="M538.8,665.8H375.5c-7,0-12.7,5.7-12.7,12.7c0,7,5.7,12.7,12.7,12.7h163.3c7,0,12.7-5.7,12.7-12.7
				C551.5,671.5,545.8,665.8,538.8,665.8z"/>
			<path class="st26" d="M538.8,665.8h-98.5c-7,0-12.7,5.7-12.7,12.7c0,7,5.7,12.7,12.7,12.7h98.5c7,0,12.7-5.7,12.7-12.7
				C551.5,671.5,545.8,665.8,538.8,665.8z"/>
		</g>
		<path class="st27" d="M1038.3,656.7h-263c-14.3,0-26,11.7-26,26c0,14.3,11.7,26,26,26h263c14.3,0,26-11.7,26-26
			C1064.3,668.4,1052.6,656.7,1038.3,656.7z"/>
		<polygon class="st28" points="810.6,556.2 827,640.2 866.1,640.2 849.8,556.2 		"/>
		<path class="st15" d="M1277.1,808h-41.6c-7.4,0-13.5,6.1-13.5,13.5v41.6c0,7.4,6.1,13.5,13.5,13.5h41.6c7.4,0,13.5-6.1,13.5-13.5
			v-41.6C1290.6,814.1,1284.5,808,1277.1,808z"/>
		<circle class="st29" cx="1006.9" cy="793" r="19.1"/>
		<path class="st4" d="M918.5,784.8H814.1c-4.3,0-7.7,3.5-7.7,7.7v133.8c0,4.3,3.5,7.7,7.7,7.7h104.4c4.3,0,7.7-3.5,7.7-7.7V792.5
			C926.2,788.2,922.8,784.8,918.5,784.8z"/>
		<path class="st4" d="M966.8,840.6c-2.8,0-5.2,2.3-5.2,5.2c0,7.7-3.2,14.7-8.2,19.8c-5.1,5.1-12.1,8.2-19.8,8.2
			c-7.7,0-14.7-3.2-19.8-8.2c-5.1-5.1-8.2-12.1-8.2-19.8V722.1V575.7c0-6.4-2.6-12.3-6.9-16.5c-4.2-4.2-10.1-6.9-16.5-6.9h-18.2
			c-2.8,0-5.2,2.3-5.2,5.2c0,2.8,2.3,5.2,5.2,5.2h18.2c3.6,0,6.9,1.5,9.2,3.8v0c2.4,2.4,3.8,5.6,3.8,9.2v146.5v123.7
			c0,10.6,4.3,20.2,11.3,27.1h0c7,6.9,16.5,11.3,27.1,11.3c10.6,0,20.2-4.3,27.1-11.3c7-7,11.3-16.5,11.3-27.1
			C972,842.9,969.7,840.6,966.8,840.6z"/>
		<path class="st29" d="M990.4,813.5h-18.7c-1.7,0-3.1,1.4-3.1,3.1v85c0,1.7,1.4,3.1,3.1,3.1h18.7c1.7,0,3.1-1.4,3.1-3.1v-85
			C993.5,814.9,992.1,813.5,990.4,813.5z"/>
		<circle class="st5" cx="1256.3" cy="842.3" r="15.7"/>
		<path class="st5" d="M1256.3,837.1h-27.9c-5.3,0-10.1,2.1-13.5,5.6c-3.5,3.5-5.6,8.2-5.6,13.5v12.3v23v55.3c0,6.3-2.6,12-6.7,16.2
			c-4.1,4.1-9.9,6.7-16.2,6.7h-183.6c-2.8,0-5.2,2.3-5.2,5.2c0,2.8,2.3,5.2,5.2,5.2h183.6c9.1,0,17.4-3.7,23.4-9.7l0,0
			c6-6,9.7-14.3,9.7-23.4v-55.3v-23v-12.3c0-2.4,1-4.6,2.6-6.2c1.6-1.6,3.8-2.6,6.2-2.6h27.9c2.8,0,5.2-2.3,5.2-5.2
			C1261.5,839.4,1259.2,837.1,1256.3,837.1z"/>
		<path class="st6" d="M364.7,879c0,4,3.3,7.2,7.2,7.2c4,0,7.2-3.3,7.2-7.2V708.8h-14.5V879z"/>
		<path class="st6" d="M638.2,879c0,4,3.3,7.2,7.2,7.2h0c4,0,7.2-3.3,7.2-7.2V708.8h-14.5V879z"/>
		<path class="st5" d="M698.6,404.7c-10.2,0-18.6,8.4-18.6,18.6v76.3c0,10.2,8.4,18.6,18.6,18.6c10.2,0,18.6-8.4,18.6-18.6v-76.3
			C717.2,413.1,708.8,404.7,698.6,404.7z"/>
		<g>
			<circle class="st1" cx="461.1" cy="341" r="10.3"/>
			<ellipse class="st1" cx="437.7" cy="317.6" rx="5.9" ry="5.9"/>
		</g>
		<g>
			<circle class="st1" cx="671" cy="346.9" r="4.3"/>
			<circle class="st1" cx="680.9" cy="337" r="2.5"/>
		</g>
	</g>
	<g>
		<path class="st15" d="M223.9,189.8c-2.4-14.1-14.8-24.9-29.5-24.9h-5.1c-14.8,0-27.1,10.8-29.5,24.9
			c-11.2,4.4-19.1,15.3-19.1,27.9c0,16.5,13.5,30,30,30h42.5c16.5,0,30-13.5,30-30C243,205,235.1,194.1,223.9,189.8z"/>
		<polygon class="st1" points="162.7,212.4 175,212.4 175,229.2 208.7,229.2 208.7,212.4 220.9,212.4 191.8,183.3 		"/>
		<g>
			<rect x="319.6" y="153.9" class="st15" width="93.7" height="93.7"/>
			<polygon class="st1" points="375.2,217.2 346.9,188.9 327.7,208.1 327.7,238.4 405.3,238.4 405.3,217.1 390.3,202.1 			"/>
			<circle class="st1" cx="380.3" cy="182.4" r="10"/>
		</g>
		<path class="st15" d="M529.3,174.2v-2.6c4.5-0.4,8-4.2,8-8.8v0c0-4.9-4-8.9-8.9-8.9h-13.2c-4.9,0-8.8,4-8.8,8.9v0
			c0,4.6,3.5,8.4,8,8.8v2.6c-16.9,3.4-29.7,18.4-29.7,36.4c0,20.5,16.6,37.1,37.1,37.1c20.5,0,37.1-16.6,37.1-37.1
			C559,192.6,546.2,177.6,529.3,174.2z"/>
		<path class="st1" d="M537.7,207.5l-12.7,0v-12.7c0-1.7-1.4-3.1-3.1-3.1c-1.7,0-3.1,1.4-3.1,3.1v15.8c0,1.7,1.4,3.1,3.1,3.1
			c0.1,0,0.2,0,0.3,0l15.5,0c1.7,0,3.1-1.4,3.1-3.1C540.8,208.9,539.4,207.5,537.7,207.5z"/>
		<path class="st15" d="M747.8,153.9H613.5c-7.1,0-12.9,5.8-12.9,12.9v67.9c0,7.1,5.8,12.9,12.9,12.9h134.4
			c7.1,0,12.9-5.8,12.9-12.9v-67.9C760.7,159.7,754.9,153.9,747.8,153.9z"/>
		<path class="st1" d="M625.5,168.3h-10.5c-2.1,0-3.9,1.8-3.9,3.9v56.3c0,2.1,1.8,3.9,3.9,3.9h10.5c2.1,0,3.9-1.8,3.9-3.9v-56.3
			C629.4,170,627.6,168.3,625.5,168.3z"/>
		<circle class="st15" cx="620.2" cy="198.8" r="6.1"/>
		<path class="st1" d="M733,168.3h-85.1c-5.7,0-10.3,4.6-10.3,10.3v43.5c0,5.7,4.6,10.3,10.3,10.3H733c5.7,0,10.3-4.6,10.3-10.3
			v-43.5C743.2,172.9,738.6,168.3,733,168.3z"/>
		<g>
			<g>
				<path class="st15" d="M624.5,174.8h-8.7c-1,0-1.7,0.8-1.7,1.7v1.9c0,1,0.8,1.7,1.7,1.7h8.7c1,0,1.7-0.8,1.7-1.7v-1.9
					C626.3,175.5,625.5,174.8,624.5,174.8z"/>
				<path class="st15" d="M624.5,184.4h-8.7c-1,0-1.7,0.8-1.7,1.7v1.9c0,1,0.8,1.7,1.7,1.7h8.7c1,0,1.7-0.8,1.7-1.7v-1.9
					C626.3,185.2,625.5,184.4,624.5,184.4z"/>
			</g>
			<g>
				<path class="st15" d="M624.5,210.9h-8.7c-1,0-1.7,0.8-1.7,1.7v1.9c0,1,0.8,1.7,1.7,1.7h8.7c1,0,1.7-0.8,1.7-1.7v-1.9
					C626.3,211.7,625.5,210.9,624.5,210.9z"/>
				<path class="st15" d="M624.5,220.5h-8.7c-1,0-1.7,0.8-1.7,1.7v1.9c0,1,0.8,1.7,1.7,1.7h8.7c1,0,1.7-0.8,1.7-1.7v-1.9
					C626.3,221.3,625.5,220.5,624.5,220.5z"/>
			</g>
		</g>
		<g>
			<g>
				<g>
					<polygon class="st15" points="814.5,196.9 831.8,247.6 858.5,247.6 875.8,196.9 845.2,153.9 					"/>
					<circle class="st1" cx="845.2" cy="205.3" r="11.3"/>
				</g>
				<path class="st15" d="M865,234.4h-39.6c-3.4,0-6.2,2.8-6.2,6.2v1c0,3.4,2.8,6.2,6.2,6.2H865c3.4,0,6.2-2.8,6.2-6.2v-1
					C871.1,237.1,868.4,234.4,865,234.4z"/>
			</g>
			<path class="st15" d="M876.2,157.5h-62.1c-2.3,0-4.2,1.9-4.2,4.2c0,2.3,1.9,4.2,4.2,4.2h62.1c2.3,0,4.2-1.9,4.2-4.2
				C880.4,159.3,878.5,157.5,876.2,157.5z"/>
			<g>
				<circle class="st15" cx="811.4" cy="161.1" r="7.1"/>
				<circle class="st15" cx="878.9" cy="161.1" r="7.1"/>
			</g>
			<path class="st15" d="M848.6,153.9h-6.9c-1.9,0-3.5,1.6-3.5,3.5v8.4c0,1.9,1.6,3.5,3.5,3.5h6.9c1.9,0,3.5-1.6,3.5-3.5v-8.4
				C852.1,155.5,850.5,153.9,848.6,153.9z"/>
		</g>
	</g>
</g>
</svg>
